<svg xmlns="http://www.w3.org/2000/svg" width="20" height="18" viewBox="0 0 20 18" fill="none">
  <path d="M17.5001 9.57218L10.0001 17.0002L2.50006 9.57218C2.00536 9.09079 1.6157 8.51219 1.3556 7.87281C1.09551 7.23343 0.970619 6.54713 0.988794 5.85711C1.00697 5.16709 1.16782 4.48831 1.46121 3.86351C1.75461 3.23871 2.17419 2.68143 2.69354 2.22676C3.21289 1.77208 3.82076 1.42987 4.47887 1.22166C5.13697 1.01345 5.83106 0.943761 6.51743 1.01698C7.20379 1.0902 7.86756 1.30473 8.46693 1.64708C9.06631 1.98943 9.58831 2.45218 10.0001 3.00618C10.4136 2.4562 10.9362 1.9975 11.5352 1.65878C12.1341 1.32007 12.7966 1.10863 13.481 1.0377C14.1654 0.966767 14.8571 1.03787 15.5128 1.24657C16.1685 1.45526 16.7741 1.79705 17.2916 2.25054C17.8091 2.70403 18.2275 3.25946 18.5205 3.88207C18.8135 4.50468 18.9748 5.18106 18.9944 5.86889C19.0139 6.55671 18.8913 7.24117 18.6342 7.87943C18.3771 8.51768 17.991 9.096 17.5001 9.57818" stroke="black" stroke-linecap="round" stroke-linejoin="round"/>
</svg>